<svg width="176" height="123" viewBox="0 0 176 123" fill="none" xmlns="http://www.w3.org/2000/svg">
<g clip-path="url(#clip0_367_2881)">
<path d="M95.5 117.55C119.801 117.55 139.5 97.8503 139.5 73.5498C139.5 49.2493 119.801 29.5498 95.5 29.5498C71.1995 29.5498 51.5 49.2493 51.5 73.5498C51.5 97.8503 71.1995 117.55 95.5 117.55Z" stroke="#4F575E" stroke-width="2" stroke-miterlimit="10"/>
<path d="M95.5 110.05C115.658 110.05 132 93.7082 132 73.5498C132 53.3914 115.658 37.0498 95.5 37.0498C75.3416 37.0498 59 53.3914 59 73.5498C59 93.7082 75.3416 110.05 95.5 110.05Z" stroke="#4F575E" stroke-width="6" stroke-miterlimit="10" stroke-dasharray="1 4"/>
<path d="M102.5 60.0498C103.983 60.0498 105.433 60.4897 106.667 61.3138C107.9 62.1379 108.861 63.3092 109.429 64.6797C109.997 66.0501 110.145 67.5581 109.856 69.013C109.567 70.4679 108.852 71.8042 107.803 72.8531C106.754 73.902 105.418 74.6163 103.963 74.9057C102.508 75.1951 101 75.0465 99.6299 74.4789C98.2595 73.9112 97.0881 72.9499 96.264 71.7166C95.4399 70.4832 95 69.0332 95 67.5498C95 65.5607 95.7902 63.653 97.1967 62.2465C98.6033 60.84 100.511 60.0498 102.5 60.0498ZM102.5 50.0498C99.0388 50.0498 95.6554 51.0762 92.7775 52.9991C89.8997 54.922 87.6566 57.6551 86.3321 60.8528C85.0076 64.0506 84.661 67.5692 85.3363 70.9639C86.0115 74.3585 87.6782 77.4768 90.1256 79.9242C92.5731 82.3716 95.6913 84.0383 99.086 84.7136C102.481 85.3888 105.999 85.0422 109.197 83.7177C112.395 82.3932 115.128 80.1501 117.051 77.2723C118.974 74.3944 120 71.011 120 67.5498C120 62.9085 118.156 58.4573 114.874 55.1754C111.593 51.8935 107.141 50.0498 102.5 50.0498Z" fill="#4F575E"/>
<path d="M95.5 122.05C122.286 122.05 144 100.336 144 73.5498C144 46.764 122.286 25.0498 95.5 25.0498C68.7142 25.0498 47 46.764 47 73.5498C47 100.336 68.7142 122.05 95.5 122.05Z" stroke="#4F575E" stroke-miterlimit="10"/>
<path d="M110.06 27.2801L117.95 19.3901H146" stroke="#4F575E" stroke-miterlimit="10"/>
<path d="M133.44 19.3899L138.47 14.3599H163.09" stroke="#4F575E" stroke-miterlimit="10"/>
<path d="M125.35 19.5298L130.38 24.5498H155" stroke="#4F575E" stroke-miterlimit="10"/>
<path d="M136.35 24.5298L141.38 29.5498H156" stroke="#4F575E" stroke-miterlimit="10"/>
<path d="M165.5 16.5498C166.605 16.5498 167.5 15.6544 167.5 14.5498C167.5 13.4452 166.605 12.5498 165.5 12.5498C164.395 12.5498 163.5 13.4452 163.5 14.5498C163.5 15.6544 164.395 16.5498 165.5 16.5498Z" stroke="#4F575E" stroke-miterlimit="10"/>
<path d="M157.5 31.5498C158.605 31.5498 159.5 30.6544 159.5 29.5498C159.5 28.4452 158.605 27.5498 157.5 27.5498C156.395 27.5498 155.5 28.4452 155.5 29.5498C155.5 30.6544 156.395 31.5498 157.5 31.5498Z" stroke="#4F575E" stroke-miterlimit="10"/>
<path d="M46.5001 73.8301L38.6101 81.7201H4.56006" stroke="#4F575E" stroke-miterlimit="10"/>
<path d="M27.12 81.7202L22.1 86.7402H13.47" stroke="#4F575E" stroke-miterlimit="10"/>
<path d="M35.2101 81.5798L30.1801 76.5498H15.5601" stroke="#4F575E" stroke-miterlimit="10"/>
<path d="M24.2101 76.5798L19.1801 71.5498H9.56006" stroke="#4F575E" stroke-miterlimit="10"/>
<path d="M11.0601 88.5498C12.1646 88.5498 13.0601 87.6544 13.0601 86.5498C13.0601 85.4452 12.1646 84.5498 11.0601 84.5498C9.95549 84.5498 9.06006 85.4452 9.06006 86.5498C9.06006 87.6544 9.95549 88.5498 11.0601 88.5498Z" stroke="#4F575E" stroke-miterlimit="10"/>
<path d="M8.06006 73.5498C9.16463 73.5498 10.0601 72.6544 10.0601 71.5498C10.0601 70.4452 9.16463 69.5498 8.06006 69.5498C6.95549 69.5498 6.06006 70.4452 6.06006 71.5498C6.06006 72.6544 6.95549 73.5498 8.06006 73.5498Z" stroke="#4F575E" stroke-miterlimit="10"/>
<path d="M2.5 83.5498C3.60457 83.5498 4.5 82.6544 4.5 81.5498C4.5 80.4452 3.60457 79.5498 2.5 79.5498C1.39543 79.5498 0.5 80.4452 0.5 81.5498C0.5 82.6544 1.39543 83.5498 2.5 83.5498Z" stroke="#4F575E" stroke-miterlimit="10"/>
<path d="M131.56 106.33L139.45 114.22H165.5" stroke="#4F575E" stroke-miterlimit="10"/>
<path d="M152.94 114.22L157.97 119.24H165.59" stroke="#4F575E" stroke-miterlimit="10"/>
<path d="M144.85 114.08L149.88 109.05H171.5" stroke="#4F575E" stroke-miterlimit="10"/>
<path d="M168 121.05C169.105 121.05 170 120.154 170 119.05C170 117.945 169.105 117.05 168 117.05C166.895 117.05 166 117.945 166 119.05C166 120.154 166.895 121.05 168 121.05Z" stroke="#4F575E" stroke-miterlimit="10"/>
<path d="M173.5 111.55C174.605 111.55 175.5 110.654 175.5 109.55C175.5 108.445 174.605 107.55 173.5 107.55C172.395 107.55 171.5 108.445 171.5 109.55C171.5 110.654 172.395 111.55 173.5 111.55Z" stroke="#4F575E" stroke-miterlimit="10"/>
<path d="M32 7.89014V20.0801" stroke="#4F575E" stroke-width="2" stroke-miterlimit="10"/>
<path d="M35.5 10.5098V20.0798" stroke="#4F575E" stroke-width="2" stroke-miterlimit="10"/>
<path d="M39.01 13.1401V20.0801" stroke="#4F575E" stroke-width="2" stroke-miterlimit="10"/>
<path d="M42.51 10.5098V20.0798" stroke="#4F575E" stroke-width="2" stroke-miterlimit="10"/>
<path d="M46.02 7.89014V20.0801" stroke="#4F575E" stroke-width="2" stroke-miterlimit="10"/>
<path d="M49.52 5.25977V20.0798" stroke="#4F575E" stroke-width="2" stroke-miterlimit="10"/>
<path d="M53.03 0V20.08" stroke="#4F575E" stroke-width="2" stroke-miterlimit="10"/>
<path d="M56.53 7.89014V20.0801" stroke="#4F575E" stroke-width="2" stroke-miterlimit="10"/>
<path d="M30.55 22.4102H58.07L67.5 32.5502" stroke="#4F575E" stroke-miterlimit="10"/>
</g>
<defs>
<clipPath id="clip0_367_2881">
<rect width="176" height="122.55" fill="white"/>
</clipPath>
</defs>
</svg>
