<svg width="176" height="112" viewBox="0 0 176 112" fill="none" xmlns="http://www.w3.org/2000/svg">
<g clip-path="url(#clip0_367_2859)">
<path d="M37.386 47.4415C41.1698 47.4415 44.2372 44.3741 44.2372 40.5904C44.2372 36.8066 41.1698 33.7393 37.386 33.7393C33.6023 33.7393 30.5349 36.8066 30.5349 40.5904C30.5349 44.3741 33.6023 47.4415 37.386 47.4415Z" stroke="#4F575E" stroke-width="2" stroke-miterlimit="10"/>
<path d="M51.0882 31.631C54.872 31.631 57.9394 28.5636 57.9394 24.7798C57.9394 20.9961 54.872 17.9287 51.0882 17.9287C47.3045 17.9287 44.2371 20.9961 44.2371 24.7798C44.2371 28.5636 47.3045 31.631 51.0882 31.631Z" stroke="#4F575E" stroke-width="2" stroke-miterlimit="10"/>
<path d="M45.8182 68.5216C49.6019 68.5216 52.6693 65.4542 52.6693 61.6705C52.6693 57.8867 49.6019 54.8193 45.8182 54.8193C42.0344 54.8193 38.967 57.8867 38.967 61.6705C38.967 65.4542 42.0344 68.5216 45.8182 68.5216Z" stroke="#4F575E" stroke-width="2" stroke-miterlimit="10"/>
<path d="M59.5204 52.7115C63.3041 52.7115 66.3715 49.6442 66.3715 45.8604C66.3715 42.0766 63.3041 39.0093 59.5204 39.0093C55.7366 39.0093 52.6693 42.0766 52.6693 45.8604C52.6693 49.6442 55.7366 52.7115 59.5204 52.7115Z" stroke="#4F575E" stroke-width="2" stroke-miterlimit="10"/>
<path d="M69.9024 74.3186C65.528 75.5893 61.4503 77.718 57.9071 80.5809C54.3638 83.4437 51.426 86.9833 49.2648 90.9932L45.4808 97.8759C42.934 102.503 38.9138 106.145 34.0592 108.225C29.2046 110.305 23.7941 110.702 18.6877 109.354V109.354C15.6801 108.563 12.858 107.186 10.3826 105.304C7.9072 103.421 5.82696 101.069 4.26083 98.382C2.69471 95.6951 1.6734 92.726 1.25517 89.6442C0.836943 86.5625 1.03003 83.4285 1.82342 80.4214L17.3596 32.3476C18.9176 26.7265 21.611 21.4844 25.2737 16.9447C28.9363 12.405 33.4905 8.66415 38.6551 5.95296C43.8197 3.24176 49.4852 1.61778 55.3018 1.18124C61.1184 0.744705 66.9628 1.50484 72.4742 3.41479H103.557C109.069 1.50484 114.913 0.744705 120.73 1.18124C126.546 1.61778 132.212 3.24176 137.376 5.95296C142.541 8.66415 147.095 12.405 150.758 16.9447C154.42 21.4844 157.114 26.7265 158.672 32.3476L174.155 80.4425C174.95 83.4496 175.144 86.5839 174.727 89.6662C174.309 92.7484 173.288 95.718 171.722 98.4053C170.155 101.092 168.075 103.445 165.599 105.327C163.122 107.209 160.299 108.585 157.291 109.375V109.375C152.186 110.723 146.777 110.325 141.925 108.245C137.072 106.165 133.053 102.523 130.508 97.897L126.714 91.0143C124.559 86.9994 121.625 83.4547 118.083 80.5879C114.541 77.7211 110.463 75.5897 106.087 74.3186H69.9024Z" stroke="#4F575E" stroke-width="2" stroke-miterlimit="10"/>
<path d="M137.739 37.4283H131.784C131.767 37.4283 131.751 37.4217 131.739 37.4098C131.727 37.3979 131.721 37.3819 131.721 37.3651V31.4098C131.752 29.9232 131.231 28.4777 130.257 27.3539C129.283 26.2301 127.927 25.5082 126.451 25.3282C125.648 25.2549 124.839 25.3498 124.075 25.6068C123.311 25.8638 122.609 26.2773 122.014 26.8208C121.419 27.3644 120.944 28.026 120.619 28.7635C120.294 29.5011 120.126 30.2982 120.126 31.1042V37.3651C120.126 37.3819 120.12 37.3979 120.108 37.4098C120.096 37.4217 120.08 37.4283 120.063 37.4283H114.108C112.621 37.3965 111.176 37.9181 110.052 38.8919C108.928 39.8657 108.206 41.2223 108.026 42.6984C107.953 43.501 108.048 44.3101 108.305 45.074C108.562 45.8379 108.975 46.5398 109.519 47.1349C110.062 47.73 110.724 48.2052 111.462 48.5303C112.199 48.8553 112.996 49.0229 113.802 49.0225H120.063C120.08 49.0225 120.096 49.0292 120.108 49.041C120.12 49.0529 120.126 49.069 120.126 49.0858V55.041C120.095 56.5277 120.616 57.9732 121.59 59.0969C122.564 60.2207 123.92 60.9427 125.397 61.1226C126.199 61.1959 127.008 61.101 127.772 60.844C128.536 60.587 129.238 60.1735 129.833 59.63C130.428 59.0865 130.903 58.4248 131.228 57.6873C131.553 56.9498 131.721 56.1526 131.721 55.3466V49.0858C131.721 49.069 131.727 49.0529 131.739 49.041C131.751 49.0292 131.767 49.0225 131.784 49.0225H138.045C138.851 49.0229 139.648 48.8553 140.385 48.5303C141.123 48.2052 141.785 47.73 142.328 47.1349C142.872 46.5398 143.285 45.8379 143.542 45.074C143.799 44.3101 143.894 43.501 143.821 42.6984C143.641 41.2223 142.919 39.8657 141.795 38.8919C140.671 37.9181 139.226 37.3965 137.739 37.4283V37.4283Z" stroke="#4F575E" stroke-width="2" stroke-miterlimit="10"/>
<path d="M103.262 3.41504L98.4453 8.60086C97.5628 9.54923 96.4943 10.3055 95.3065 10.8223C94.1186 11.3392 92.8369 11.6055 91.5415 11.6048H84.1634C82.8667 11.6032 81.5842 11.3358 80.395 10.8192C79.2057 10.3025 78.135 9.54753 77.249 8.60086L72.4321 3.41504" stroke="#4F575E" stroke-miterlimit="10"/>
<path d="M56.1265 82.2239L66.0553 66.9406C69.7338 61.2595 74.888 58.0342 80.2846 58.0342H95.4413C100.838 58.0342 105.982 61.2595 109.671 66.9406L119.599 82.2239" stroke="#4F575E" stroke-miterlimit="10"/>
<path d="M79.8419 28.9961V41.1173" stroke="#4F575E" stroke-miterlimit="10"/>
<path d="M83.0461 28.9961V41.1173" stroke="#4F575E" stroke-miterlimit="10"/>
<path d="M86.2609 28.9961V41.1173" stroke="#4F575E" stroke-miterlimit="10"/>
<path d="M89.4651 28.9961V41.1173" stroke="#4F575E" stroke-miterlimit="10"/>
<path d="M92.6798 28.9961V41.1173" stroke="#4F575E" stroke-miterlimit="10"/>
<path d="M95.884 28.9961V41.1173" stroke="#4F575E" stroke-miterlimit="10"/>
<path d="M15.747 39.0513L19.0777 45.2911C19.6889 46.4333 20.0577 47.6894 20.1611 48.9807C20.2645 50.272 20.1002 51.5708 19.6785 52.7957L17.2859 59.7522C16.8617 60.9767 16.1911 62.1013 15.3156 63.0567C14.44 64.012 13.3779 64.7779 12.1949 65.3069L5.76544 68.1844" stroke="#4F575E" stroke-miterlimit="10"/>
<path d="M159.842 39.0513L156.49 45.2911C155.877 46.4325 155.506 47.6887 155.403 48.9804C155.299 50.2721 155.465 51.5713 155.889 52.7957L158.282 59.7522C158.703 60.9785 159.372 62.1048 160.248 63.0606C161.124 64.0163 162.188 64.7811 163.373 65.3069L169.834 68.1844" stroke="#4F575E" stroke-miterlimit="10"/>
</g>
<defs>
<clipPath id="clip0_367_2859">
<rect width="176" height="111.22" fill="white"/>
</clipPath>
</defs>
</svg>
