<svg width="176" height="128" viewBox="0 0 176 128" fill="none" xmlns="http://www.w3.org/2000/svg">
<g clip-path="url(#clip0_367_2835)">
<path d="M167.84 1H8.16C4.20564 1 1 4.20564 1 8.16V35.6C1 39.5544 4.20564 42.76 8.16 42.76H167.84C171.794 42.76 175 39.5544 175 35.6V8.16C175 4.20564 171.794 1 167.84 1Z" stroke="#4F575E" stroke-width="2" stroke-miterlimit="10"/>
<path d="M168.96 4.47998H7.04C5.62615 4.47998 4.48 5.62613 4.48 7.03998V36.72C4.48 38.1338 5.62615 39.28 7.04 39.28H168.96C170.374 39.28 171.52 38.1338 171.52 36.72V7.03998C171.52 5.62613 170.374 4.47998 168.96 4.47998Z" stroke="#4F575E" stroke-miterlimit="10"/>
<path d="M158.99 27.8C162.26 27.8 164.91 25.1495 164.91 21.88C164.91 18.6104 162.26 15.96 158.99 15.96C155.72 15.96 153.07 18.6104 153.07 21.88C153.07 25.1495 155.72 27.8 158.99 27.8Z" stroke="#4F575E" stroke-miterlimit="10"/>
<path d="M4.48 21.8799H132.2" stroke="#4F575E" stroke-miterlimit="10"/>
<path d="M139.5 23.6201C140.461 23.6201 141.24 22.8411 141.24 21.8801C141.24 20.9192 140.461 20.1401 139.5 20.1401C138.539 20.1401 137.76 20.9192 137.76 21.8801C137.76 22.8411 138.539 23.6201 139.5 23.6201Z" fill="#4F575E"/>
<path d="M146.46 23.6201C147.421 23.6201 148.2 22.8411 148.2 21.8801C148.2 20.9192 147.421 20.1401 146.46 20.1401C145.499 20.1401 144.72 20.9192 144.72 21.8801C144.72 22.8411 145.499 23.6201 146.46 23.6201Z" fill="#4F575E"/>
<path d="M167.84 42.7598H8.16C4.20564 42.7598 1 45.9654 1 49.9198V77.3598C1 81.3141 4.20564 84.5198 8.16 84.5198H167.84C171.794 84.5198 175 81.3141 175 77.3598V49.9198C175 45.9654 171.794 42.7598 167.84 42.7598Z" stroke="#4F575E" stroke-width="2" stroke-miterlimit="10"/>
<path d="M168.96 46.2402H7.04C5.62615 46.2402 4.48 47.3864 4.48 48.8002V78.4802C4.48 79.8941 5.62615 81.0402 7.04 81.0402H168.96C170.374 81.0402 171.52 79.8941 171.52 78.4802V48.8002C171.52 47.3864 170.374 46.2402 168.96 46.2402Z" stroke="#4F575E" stroke-miterlimit="10"/>
<path d="M158.99 69.5602C162.26 69.5602 164.91 66.9097 164.91 63.6402C164.91 60.3707 162.26 57.7202 158.99 57.7202C155.72 57.7202 153.07 60.3707 153.07 63.6402C153.07 66.9097 155.72 69.5602 158.99 69.5602Z" stroke="#4F575E" stroke-miterlimit="10"/>
<path d="M4.48 63.6401H132.2" stroke="#4F575E" stroke-miterlimit="10"/>
<path d="M139.5 65.3799C140.461 65.3799 141.24 64.6009 141.24 63.6399C141.24 62.6789 140.461 61.8999 139.5 61.8999C138.539 61.8999 137.76 62.6789 137.76 63.6399C137.76 64.6009 138.539 65.3799 139.5 65.3799Z" fill="#4F575E"/>
<path d="M146.46 65.3799C147.421 65.3799 148.2 64.6009 148.2 63.6399C148.2 62.6789 147.421 61.8999 146.46 61.8999C145.499 61.8999 144.72 62.6789 144.72 63.6399C144.72 64.6009 145.499 65.3799 146.46 65.3799Z" fill="#4F575E"/>
<path d="M167.84 84.52H8.16C4.20564 84.52 1 87.7257 1 91.68V119.12C1 123.074 4.20564 126.28 8.16 126.28H167.84C171.794 126.28 175 123.074 175 119.12V91.68C175 87.7257 171.794 84.52 167.84 84.52Z" stroke="#4F575E" stroke-width="2" stroke-miterlimit="10"/>
<path d="M168.96 88H7.04C5.62615 88 4.48 89.1461 4.48 90.56V120.24C4.48 121.654 5.62615 122.8 7.04 122.8H168.96C170.374 122.8 171.52 121.654 171.52 120.24V90.56C171.52 89.1461 170.374 88 168.96 88Z" stroke="#4F575E" stroke-miterlimit="10"/>
<path d="M158.99 111.32C162.26 111.32 164.91 108.67 164.91 105.4C164.91 102.13 162.26 99.48 158.99 99.48C155.72 99.48 153.07 102.13 153.07 105.4C153.07 108.67 155.72 111.32 158.99 111.32Z" stroke="#4F575E" stroke-miterlimit="10"/>
<path d="M4.48 105.4H132.2" stroke="#4F575E" stroke-miterlimit="10"/>
<path d="M139.5 107.14C140.461 107.14 141.24 106.361 141.24 105.4C141.24 104.439 140.461 103.66 139.5 103.66C138.539 103.66 137.76 104.439 137.76 105.4C137.76 106.361 138.539 107.14 139.5 107.14Z" fill="#4F575E"/>
<path d="M146.46 107.14C147.421 107.14 148.2 106.361 148.2 105.4C148.2 104.439 147.421 103.66 146.46 103.66C145.499 103.66 144.72 104.439 144.72 105.4C144.72 106.361 145.499 107.14 146.46 107.14Z" fill="#4F575E"/>
</g>
<defs>
<clipPath id="clip0_367_2835">
<rect width="176" height="127.28" fill="white"/>
</clipPath>
</defs>
</svg>
