<svg width="24" height="24" viewBox="0 0 24 24" fill="none" xmlns="http://www.w3.org/2000/svg">
<path d="M11.96 17.5501C10.8722 17.5501 9.80886 17.2275 8.90439 16.6231C7.99992 16.0188 7.29497 15.1598 6.87869 14.1548C6.46241 13.1498 6.35349 12.0439 6.56571 10.9771C6.77792 9.91016 7.30175 8.93015 8.07094 8.16096C8.84013 7.39177 9.82013 6.86795 10.887 6.65573C11.9539 6.44351 13.0598 6.55243 14.0648 6.96871C15.0698 7.385 15.9288 8.08994 16.5331 8.99441C17.1375 9.89889 17.46 10.9623 17.46 12.0501C17.4574 13.5079 16.8771 14.9053 15.8462 15.9362C14.8153 16.9671 13.4179 17.5474 11.96 17.5501ZM11.96 8.55005C11.2678 8.55005 10.5911 8.75532 10.0155 9.13991C9.43996 9.52449 8.99135 10.0711 8.72645 10.7107C8.46154 11.3502 8.39223 12.0539 8.52728 12.7329C8.66232 13.4118 8.99567 14.0354 9.48515 14.5249C9.97463 15.0144 10.5983 15.3478 11.2772 15.4828C11.9561 15.6178 12.6599 15.5485 13.2994 15.2836C13.939 15.0187 14.4856 14.5701 14.8702 13.9945C15.2548 13.419 15.46 12.7423 15.46 12.0501C15.46 11.1218 15.0913 10.2316 14.4349 9.57518C13.7785 8.9188 12.8883 8.55005 11.96 8.55005Z" fill="#FDFDFD"/>
<path d="M12.96 4H10.96V6.91H12.96V4Z" fill="#FDFDFD"/>
<path d="M12.96 17H10.96V19.91H12.96V17Z" fill="#FDFDFD"/>
<path d="M16.8757 5.62413L14.111 8.38892L15.5252 9.80313L18.29 7.03834L16.8757 5.62413Z" fill="#FDFDFD"/>
<path d="M8.38869 14.1039L5.6239 16.8687L7.03811 18.2829L9.8029 15.5181L8.38869 14.1039Z" fill="#FDFDFD"/>
<path d="M19.91 10.96H16V12.96H19.91V10.96Z" fill="#FDFDFD"/>
<path d="M7.91 10.96H4V12.96H7.91V10.96Z" fill="#FDFDFD"/>
<path d="M15.5212 14.1136L14.1072 15.5281L16.8725 18.2924L18.2865 16.8779L15.5212 14.1136Z" fill="#FDFDFD"/>
<path d="M7.04159 5.61874L5.62762 7.0332L8.39289 9.79751L9.80686 8.38305L7.04159 5.61874Z" fill="#FDFDFD"/>
</svg>
