<svg width="24" height="24" viewBox="0 0 24 24" fill="none" xmlns="http://www.w3.org/2000/svg">
<path d="M18.36 19.3601L17 17.9501C17.9789 16.9711 18.6455 15.7238 18.9156 14.366C19.1856 13.0081 19.0469 11.6007 18.5171 10.3217C17.9873 9.04262 17.09 7.94941 15.9389 7.18027C14.7878 6.41114 13.4344 6.00061 12.05 6.00061C10.6656 6.00061 9.31221 6.41114 8.16109 7.18027C7.00996 7.94941 6.11275 9.04262 5.58292 10.3217C5.05308 11.6007 4.91442 13.0081 5.18445 14.366C5.45449 15.7238 6.12111 16.9711 7.1 17.9501L5.64 19.3601C4.38021 18.1019 3.52193 16.4983 3.17376 14.7521C2.82558 13.006 3.00316 11.1958 3.68402 9.55062C4.36488 7.90544 5.51842 6.49917 6.99871 5.50974C8.47899 4.52031 10.2195 3.99219 12 3.99219C13.7805 3.99219 15.521 4.52031 17.0013 5.50974C18.4816 6.49917 19.6351 7.90544 20.316 9.55062C20.9968 11.1958 21.1744 13.006 20.8263 14.7521C20.4781 16.4983 19.6198 18.1019 18.36 19.3601Z" fill="#FDFDFD"/>
<path d="M24 17.6501H0V19.6501H24V17.6501Z" fill="#FDFDFD"/>
<path d="M13 9.64014H11V15.2901H13V9.64014Z" fill="#FDFDFD"/>
</svg>
