<svg width="24" height="24" viewBox="0 0 24 24" fill="none" xmlns="http://www.w3.org/2000/svg">
<g clip-path="url(#clip0_367_2566)">
<path d="M17.7861 17.668C16.7771 17.6687 15.7854 17.4072 14.908 16.909C14.0306 16.4109 13.2978 15.6932 12.7814 14.8264L9.18275 9.91026C8.86941 9.35255 8.42218 8.88159 7.88139 8.53987C7.34061 8.19815 6.72327 7.9964 6.08505 7.95282C5.44683 7.90924 4.80779 8.0252 4.22558 8.29024C3.64336 8.55529 3.13626 8.96108 2.75002 9.47102C2.36378 9.98097 2.11054 10.579 2.01313 11.2113C1.91573 11.8435 1.97722 12.4901 2.19207 13.0926C2.40692 13.6952 2.76836 14.2348 3.24381 14.6628C3.71926 15.0908 4.29376 15.3937 4.9155 15.5442C5.41044 15.6747 5.92655 15.7045 6.43322 15.6319C6.9399 15.5593 7.42685 15.3857 7.86521 15.1214L10.3528 13.4302L11.454 15.0526L8.84845 16.7438C7.86393 17.3546 6.71951 17.6578 5.56168 17.6144C4.40385 17.5711 3.2853 17.1832 2.34923 16.5004C1.41316 15.8176 0.702169 14.8709 0.307266 13.7817C-0.0876372 12.6924 -0.148477 11.5101 0.132534 10.386C0.413546 9.26197 1.02362 8.24737 1.88466 7.47209C2.7457 6.69681 3.81852 6.19613 4.96579 6.03416C6.11305 5.87219 7.28255 6.05629 8.32457 6.56289C9.36658 7.06949 10.2337 7.87555 10.8149 8.87786L14.4136 13.794C14.7896 14.461 15.3558 15.0008 16.0399 15.3447C16.724 15.6885 17.495 15.8208 18.2546 15.7248C19.0142 15.6287 19.728 15.3085 20.3049 14.8052C20.8818 14.3018 21.2957 13.638 21.4939 12.8984C21.692 12.1589 21.6654 11.377 21.4174 10.6526C21.1695 9.92826 20.7114 9.29414 20.1016 8.83116C19.4918 8.36818 18.7579 8.0973 17.9935 8.05309C17.2291 8.00887 16.4689 8.19331 15.8098 8.58289L13.3222 10.2741L12.2209 8.60256L14.7479 6.91139C15.4002 6.44403 16.142 6.1166 16.9269 5.94964C17.7118 5.78269 18.5227 5.77982 19.3088 5.94123C20.0948 6.10263 20.839 6.42482 21.4946 6.88755C22.1502 7.35029 22.703 7.94358 23.1183 8.63016C23.5337 9.31674 23.8026 10.0818 23.9081 10.8773C24.0137 11.6727 23.9537 12.4814 23.7318 13.2526C23.5099 14.0237 23.1309 14.7407 22.6188 15.3584C22.1066 15.9761 21.4722 16.4812 20.7554 16.8421C19.8592 17.3824 18.8326 17.6679 17.7861 17.668Z" fill="#FDFDFD"/>
</g>
<defs>
<clipPath id="clip0_367_2566">
<rect width="24" height="24" fill="white"/>
</clipPath>
</defs>
</svg>
