<svg width="24" height="24" viewBox="0 0 24 24" fill="none" xmlns="http://www.w3.org/2000/svg">
<path d="M9.23 15.24H3.62C2.65992 15.24 1.73916 14.8586 1.06027 14.1797C0.381392 13.5008 0 12.5801 0 11.62C0 10.6599 0.381392 9.73915 1.06027 9.06027C1.73916 8.38139 2.65992 8 3.62 8H9.23C9.49522 8 9.74957 8.10536 9.93711 8.29289C10.1246 8.48043 10.23 8.73478 10.23 9C10.23 9.26522 10.1246 9.51957 9.93711 9.70711C9.74957 9.89464 9.49522 10 9.23 10H3.62C3.19035 10 2.7783 10.1707 2.47449 10.4745C2.17068 10.7783 2 11.1903 2 11.62C2 12.0497 2.17068 12.4617 2.47449 12.7655C2.7783 13.0693 3.19035 13.24 3.62 13.24H9.23C9.49522 13.24 9.74957 13.3454 9.93711 13.5329C10.1246 13.7204 10.23 13.9748 10.23 14.24C10.23 14.5052 10.1246 14.7596 9.93711 14.9471C9.74957 15.1346 9.49522 15.24 9.23 15.24Z" fill="#FDFDFD"/>
<path d="M20.38 15.24H14.77C14.5048 15.24 14.2504 15.1346 14.0629 14.9471C13.8754 14.7596 13.77 14.5052 13.77 14.24C13.77 13.9748 13.8754 13.7204 14.0629 13.5329C14.2504 13.3454 14.5048 13.24 14.77 13.24H20.38C20.8097 13.24 21.2217 13.0693 21.5255 12.7655C21.8293 12.4617 22 12.0497 22 11.62C22 11.1903 21.8293 10.7783 21.5255 10.4745C21.2217 10.1707 20.8097 10 20.38 10H14.77C14.5048 10 14.2504 9.89464 14.0629 9.70711C13.8754 9.51957 13.77 9.26522 13.77 9C13.77 8.73478 13.8754 8.48043 14.0629 8.29289C14.2504 8.10536 14.5048 8 14.77 8H20.38C21.3401 8 22.2608 8.38139 22.9397 9.06027C23.6186 9.73915 24 10.6599 24 11.62C24 12.5801 23.6186 13.5008 22.9397 14.1797C22.2608 14.8586 21.3401 15.24 20.38 15.24Z" fill="#FDFDFD"/>
<path d="M18.89 12.6201H5.10999C4.84477 12.6201 4.59041 12.5148 4.40288 12.3272C4.21534 12.1397 4.10999 11.8853 4.10999 11.6201C4.10999 11.3549 4.21534 11.1005 4.40288 10.913C4.59041 10.7255 4.84477 10.6201 5.10999 10.6201H18.89C19.1552 10.6201 19.4096 10.7255 19.5971 10.913C19.7846 11.1005 19.89 11.3549 19.89 11.6201C19.89 11.8853 19.7846 12.1397 19.5971 12.3272C19.4096 12.5148 19.1552 12.6201 18.89 12.6201Z" fill="#FDFDFD"/>
</svg>
