<svg width="24" height="24" viewBox="0 0 24 24" fill="none" xmlns="http://www.w3.org/2000/svg">
<g clip-path="url(#clip0_367_2557)">
<path d="M24 16.409H22.0174V12.9393H11.1524V10.9567H24V16.409Z" fill="#FDFDFD"/>
<path d="M20.0347 11.948H18.052V16.409H20.0347V11.948Z" fill="#FDFDFD"/>
<path d="M5.94796 7.98265C6.73222 7.98265 7.49887 8.21521 8.15096 8.65093C8.80305 9.08664 9.3113 9.70593 9.61142 10.4305C9.91155 11.1551 9.99007 11.9524 9.83707 12.7215C9.68407 13.4907 9.30641 14.1973 8.75185 14.7518C8.19729 15.3064 7.49074 15.6841 6.72155 15.8371C5.95236 15.9901 5.15507 15.9115 4.4305 15.6114C3.70594 15.3113 3.08664 14.8031 2.65093 14.151C2.21522 13.4989 1.98265 12.7322 1.98265 11.948C1.98265 10.8963 2.40043 9.8877 3.14406 9.14406C3.8877 8.40042 4.89629 7.98265 5.94796 7.98265ZM5.94796 6C4.77156 6 3.62159 6.34884 2.64345 7.00241C1.66531 7.65598 0.90295 8.58492 0.452764 9.67177C0.00257717 10.7586 -0.115212 11.9546 0.114291 13.1083C0.343794 14.2621 0.910282 15.322 1.74212 16.1538C2.57395 16.9856 3.63378 17.5521 4.78757 17.7816C5.94136 18.0111 7.1373 17.8933 8.22414 17.4431C9.31099 16.993 10.2399 16.2306 10.8935 15.2525C11.5471 14.2743 11.8959 13.1243 11.8959 11.948C11.8959 10.3705 11.2693 8.85757 10.1538 7.74212C9.03834 6.62666 7.52545 6 5.94796 6Z" fill="#FDFDFD"/>
</g>
<defs>
<clipPath id="clip0_367_2557">
<rect width="24" height="24" fill="white"/>
</clipPath>
</defs>
</svg>
