<svg width="24" height="24" viewBox="0 0 24 24" fill="none" xmlns="http://www.w3.org/2000/svg">
<path d="M17.28 18.02H13.28C12.4921 18.02 11.7119 17.8648 10.9839 17.5633C10.2559 17.2618 9.59451 16.8198 9.03736 16.2627C8.48021 15.7055 8.03825 15.0441 7.73672 14.3161C7.43519 13.5882 7.28 12.808 7.28 12.02C7.28 11.2321 7.43519 10.4519 7.73672 9.72392C8.03825 8.99597 8.48021 8.33453 9.03736 7.77738C9.59451 7.22023 10.2559 6.77827 10.9839 6.47674C11.7119 6.17521 12.4921 6.02002 13.28 6.02002H13.94V8.02002H13.28C12.2191 8.02002 11.2017 8.44145 10.4516 9.19159C9.70143 9.94174 9.28 10.9592 9.28 12.02C9.28 13.0809 9.70143 14.0983 10.4516 14.8484C11.2017 15.5986 12.2191 16.02 13.28 16.02H17.28V18.02Z" fill="#FDFDFD"/>
<path d="M13.35 5L16.8 7L13.35 8.99V5Z" fill="#FDFDFD"/>
<path d="M16.69 19.01L20.14 17.02L16.69 15.02V19.01Z" fill="#FDFDFD"/>
<path d="M19.91 10.9099H1V12.9099H19.91V10.9099Z" fill="#FDFDFD"/>
<path d="M19.32 13.8999L22.78 11.9099L19.32 9.90991V13.8999Z" fill="#FDFDFD"/>
</svg>
