<svg width="24" height="24" viewBox="0 0 24 24" fill="none" xmlns="http://www.w3.org/2000/svg">
<path d="M12 21C9.44943 20.9973 7.00409 19.9829 5.20056 18.1794C3.39703 16.3759 2.38265 13.9305 2.38 11.38V5.45996H4.38V11.38C4.38 13.4009 5.18282 15.3391 6.61185 16.7681C8.04088 18.1971 9.97906 19 12 19C14.021 19 15.9591 18.1971 17.3882 16.7681C18.8172 15.3391 19.62 13.4009 19.62 11.38V5.45996H21.62V11.38C21.6174 13.9305 20.603 16.3759 18.7994 18.1794C16.9959 19.9829 14.5506 20.9973 12 21Z" fill="#FDFDFD"/>
<path d="M24 2H0V4H24V2Z" fill="#FDFDFD"/>
<path d="M13.85 16.3099C13.0426 16.3119 12.2528 16.0743 11.5806 15.6272C10.9083 15.18 10.3838 14.5435 10.0735 13.7982C9.76312 13.0528 9.6809 12.2322 9.83719 11.4401C9.99349 10.648 10.3813 9.92005 10.9515 9.34845C11.5217 8.77685 12.2486 8.38727 13.0404 8.22904C13.8321 8.0708 14.6529 8.15101 15.399 8.45952C16.1451 8.76803 16.7829 9.29096 17.2317 9.96213C17.6805 10.6333 17.92 11.4225 17.92 12.2299C17.92 13.3102 17.4915 14.3465 16.7285 15.1114C15.9656 15.8762 14.9304 16.3072 13.85 16.3099ZM13.85 10.1499C13.4382 10.1479 13.0351 10.2682 12.6917 10.4956C12.3483 10.7229 12.0802 11.0471 11.9212 11.427C11.7623 11.8068 11.7196 12.2254 11.7988 12.6295C11.8779 13.0337 12.0752 13.4052 12.3657 13.6971C12.6562 13.989 13.0268 14.1881 13.4305 14.2692C13.8343 14.3502 14.253 14.3096 14.6337 14.1525C15.0143 13.9954 15.3398 13.7288 15.5688 13.3865C15.7978 13.0442 15.92 12.6417 15.92 12.2299C15.92 11.68 15.7022 11.1524 15.3143 10.7626C14.9264 10.3728 14.3999 10.1525 13.85 10.1499Z" fill="#FDFDFD"/>
</svg>
