<svg width="680" height="472" viewBox="0 0 680 472" fill="none" xmlns="http://www.w3.org/2000/svg">
<path d="M482.083 401.612H19.1223C14.6756 401.612 10.4106 399.837 7.26409 396.677C4.11757 393.516 2.34676 389.229 2.34056 384.756V84.7481C2.34056 80.2715 4.10861 75.9783 7.2558 72.8129C10.403 69.6474 14.6715 67.8691 19.1223 67.8691H70.3336" stroke="#4F575E" stroke-width="2" stroke-miterlimit="10"/>
<path d="M263.616 67.8927H580.012C582.218 67.8834 584.405 68.3125 586.446 69.1554C588.488 69.9983 590.343 71.2383 591.907 72.8044C593.471 74.3705 594.711 76.2319 595.558 78.2815C596.404 80.3311 596.84 82.5287 596.84 84.7481V175.499" stroke="#4F575E" stroke-width="2" stroke-miterlimit="10"/>
<path d="M482.083 393.42H22.5161C19.3254 393.42 16.2654 392.145 14.0093 389.875C11.7532 387.606 10.4857 384.529 10.4857 381.319V88.1851C10.4857 84.976 11.7532 81.8983 14.0093 79.6291C16.2654 77.3598 19.3254 76.085 22.5161 76.085H71.6676" stroke="#4F575E" stroke-miterlimit="10"/>
<path d="M262.259 76.0852H577.671C579.116 76.0759 580.547 76.354 581.885 76.9035C583.222 77.453 584.437 78.2631 585.462 79.287C586.487 80.311 587.3 81.5286 587.855 82.8699C588.41 84.2112 588.695 85.6497 588.695 87.1024V175.523" stroke="#4F575E" stroke-miterlimit="10"/>
<path d="M190.287 176.441C216.127 176.441 237.074 155.372 237.074 129.382C237.074 103.392 216.127 82.3232 190.287 82.3232C164.447 82.3232 143.499 103.392 143.499 129.382C143.499 155.372 164.447 176.441 190.287 176.441Z" stroke="#4F575E" stroke-width="2" stroke-miterlimit="10"/>
<path d="M190.287 169.543C212.339 169.543 230.217 151.562 230.217 129.382C230.217 107.201 212.339 89.2207 190.287 89.2207C168.234 89.2207 150.357 107.201 150.357 129.382C150.357 151.562 168.234 169.543 190.287 169.543Z" stroke="#4F575E" stroke-miterlimit="10"/>
<path d="M230.895 42.7741C247.692 59.6694 257.128 82.5836 257.128 106.476C257.128 130.369 247.692 153.283 230.895 170.179C214.093 187.074 191.307 196.566 167.548 196.566C143.789 196.566 121.003 187.074 104.201 170.179C87.4217 153.261 78.0101 130.332 78.0365 106.435C78.0628 82.5388 87.5249 59.6311 104.342 42.7505" stroke="#4F575E" stroke-width="2" stroke-miterlimit="10"/>
<path d="M77.3318 109.772L66.0035 42.0444L267.97 42.2563L256.477 109.937" stroke="#4F575E" stroke-width="2" stroke-miterlimit="10"/>
<path d="M66.612 42.7271C64.3702 42.7278 62.2109 41.8768 60.5661 40.3447C58.9213 38.8126 57.9125 36.7124 57.7414 34.4642L55.1902 2.354H279.415L276.864 34.4877C276.682 36.7297 275.669 38.821 274.026 40.3471C272.383 41.8733 270.229 42.7228 267.993 42.7271V42.7271" stroke="#4F575E" stroke-width="2" stroke-miterlimit="10"/>
<path d="M55.8923 10.9702L257.156 11.1821" stroke="#4F575E" stroke-miterlimit="10"/>
<path d="M55.8689 19.4448L88.4494 19.4919" stroke="#4F575E" stroke-miterlimit="10"/>
<path d="M660.901 174.581H497.812C488.556 174.581 481.053 182.127 481.053 191.437V256.033C481.053 265.342 488.556 272.889 497.812 272.889H660.901C670.156 272.889 677.659 265.342 677.659 256.033V191.437C677.659 182.127 670.156 174.581 660.901 174.581Z" stroke="#4F575E" stroke-width="2" stroke-miterlimit="10"/>
<path d="M658.748 182.773H499.965C494.019 182.773 489.198 187.622 489.198 193.602V253.868C489.198 259.848 494.019 264.697 499.965 264.697H658.748C664.694 264.697 669.514 259.848 669.514 253.868V193.602C669.514 187.622 664.694 182.773 658.748 182.773Z" stroke="#4F575E" stroke-miterlimit="10"/>
<path d="M640.187 237.672C647.84 237.672 654.043 231.432 654.043 223.735C654.043 216.038 647.84 209.799 640.187 209.799C632.535 209.799 626.331 216.038 626.331 223.735C626.331 231.432 632.535 237.672 640.187 237.672Z" stroke="#4F575E" stroke-miterlimit="10"/>
<path d="M489.198 223.735H577.46" stroke="#4F575E" stroke-miterlimit="10"/>
<path d="M594.57 227.831C596.819 227.831 598.643 225.997 598.643 223.735C598.643 221.473 596.819 219.639 594.57 219.639C592.321 219.639 590.497 221.473 590.497 223.735C590.497 225.997 592.321 227.831 594.57 227.831Z" fill="#4F575E"/>
<path d="M610.86 227.831C613.109 227.831 614.933 225.997 614.933 223.735C614.933 221.473 613.109 219.639 610.86 219.639C608.611 219.639 606.788 221.473 606.788 223.735C606.788 225.997 608.611 227.831 610.86 227.831Z" fill="#4F575E"/>
<path d="M677.659 255.939V452.649C677.663 454.864 677.231 457.057 676.39 459.103C675.549 461.15 674.315 463.009 672.758 464.575C671.201 466.141 669.352 467.382 667.318 468.228C665.283 469.074 663.103 469.508 660.901 469.505H497.835C495.632 469.508 493.451 469.074 491.415 468.228C489.379 467.383 487.529 466.142 485.97 464.576C484.411 463.011 483.175 461.152 482.331 459.105C481.487 457.059 481.053 454.865 481.053 452.649V255.939" stroke="#4F575E" stroke-width="2" stroke-miterlimit="10"/>
<path d="M669.514 272.418V450.931C669.517 452.295 669.253 453.646 668.735 454.907C668.217 456.168 667.457 457.314 666.498 458.278C665.539 459.243 664.4 460.008 663.146 460.528C661.892 461.049 660.549 461.315 659.192 461.312H499.544C498.186 461.315 496.841 461.049 495.586 460.529C494.331 460.008 493.191 459.244 492.23 458.28C491.269 457.315 490.506 456.17 489.986 454.909C489.466 453.648 489.198 452.296 489.198 450.931V272.418" stroke="#4F575E" stroke-miterlimit="10"/>
<path d="M498.607 272.889V461.313" stroke="#4F575E" stroke-miterlimit="10"/>
<path d="M506.284 272.889V461.313" stroke="#4F575E" stroke-miterlimit="10"/>
<path d="M513.985 272.889V461.313" stroke="#4F575E" stroke-miterlimit="10"/>
<path d="M521.685 272.889V461.313" stroke="#4F575E" stroke-miterlimit="10"/>
<path d="M529.362 272.889V461.313" stroke="#4F575E" stroke-miterlimit="10"/>
<path d="M537.063 272.889V461.313" stroke="#4F575E" stroke-miterlimit="10"/>
<path d="M544.74 272.889V461.313" stroke="#4F575E" stroke-miterlimit="10"/>
<path d="M552.44 272.889V461.313" stroke="#4F575E" stroke-miterlimit="10"/>
<path d="M560.117 272.889V461.313" stroke="#4F575E" stroke-miterlimit="10"/>
<path d="M567.817 272.889V461.313" stroke="#4F575E" stroke-miterlimit="10"/>
<path d="M575.518 272.889V461.313" stroke="#4F575E" stroke-miterlimit="10"/>
<path d="M583.195 272.889V461.313" stroke="#4F575E" stroke-miterlimit="10"/>
<path d="M590.895 272.889V461.313" stroke="#4F575E" stroke-miterlimit="10"/>
<path d="M598.572 272.889V461.313" stroke="#4F575E" stroke-miterlimit="10"/>
<path d="M606.273 272.889V461.313" stroke="#4F575E" stroke-miterlimit="10"/>
<path d="M613.95 272.889V461.313" stroke="#4F575E" stroke-miterlimit="10"/>
<path d="M621.65 272.889V461.313" stroke="#4F575E" stroke-miterlimit="10"/>
<path d="M629.351 272.889V461.313" stroke="#4F575E" stroke-miterlimit="10"/>
<path d="M637.028 272.889V461.313" stroke="#4F575E" stroke-miterlimit="10"/>
<path d="M644.728 272.889V461.313" stroke="#4F575E" stroke-miterlimit="10"/>
<path d="M652.405 272.889V461.313" stroke="#4F575E" stroke-miterlimit="10"/>
<path d="M660.105 272.889V461.313" stroke="#4F575E" stroke-miterlimit="10"/>
<path d="M452.452 455.521H150.521C146.643 455.521 143.499 458.683 143.499 462.583C143.499 466.484 146.643 469.646 150.521 469.646H452.452C456.33 469.646 459.473 466.484 459.473 462.583C459.473 458.683 456.33 455.521 452.452 455.521Z" stroke="#4F575E" stroke-width="2" stroke-miterlimit="10"/>
<path d="M323.721 401.376V415.878C323.721 418.9 322.528 421.798 320.404 423.935C318.279 426.071 315.398 427.272 312.393 427.272H290.579C287.575 427.272 284.693 426.071 282.569 423.935C280.445 421.798 279.251 418.9 279.251 415.878V401.376H241.802V455.521H361.17V401.376H323.721Z" stroke="#4F575E" stroke-miterlimit="10"/>
</svg>
