<svg width="465" height="137" viewBox="0 0 465 137" fill="none" xmlns="http://www.w3.org/2000/svg">
<g clip-path="url(#clip0_1_24)">
<path d="M416.765 0H303.269L273.571 93.0283L243.873 0H196.158L239.759 136.668H307.194L340.675 31.6221V102.03V136.573H395.342V102.03H416.717C429.514 102.03 441.788 96.9666 450.842 87.9532C459.895 78.9398 464.988 66.7133 465 53.9602V48.1165C465 35.3634 459.92 23.1319 450.875 14.1096C441.831 5.0874 429.562 0.0124908 416.765 0ZM423.196 51.8395C423.196 53.9043 422.787 55.9489 421.993 57.8559C421.198 59.763 420.034 61.4951 418.567 62.953C417.1 64.4108 415.358 65.5658 413.442 66.3517C411.526 67.1376 409.473 67.5389 407.401 67.5327H384.749V34.2141H407.401C409.473 34.2079 411.526 34.6092 413.442 35.3951C415.358 36.1809 417.1 37.3359 418.567 38.7938C420.034 40.2517 421.198 41.9838 421.993 43.8908C422.787 45.7979 423.196 47.8425 423.196 49.9073V51.8395Z" fill="white"/>
<path d="M91.2219 0H63.4155H43.6011L0 136.573H47.6208L77.3187 43.5451L107.017 136.573H154.637L111.036 0H91.2219Z" fill="white"/>
<path d="M129.668 0L173.837 136.573H221.6L221.647 136.526L177.478 0H129.668Z" fill="white"/>
</g>
<defs>
<clipPath id="clip0_1_24">
<rect width="465" height="137" fill="white"/>
</clipPath>
</defs>
</svg>
