<svg width="534" height="534" viewBox="0 0 534 534" fill="none" xmlns="http://www.w3.org/2000/svg">
<path d="M267 532.936C196.469 532.936 128.827 504.918 78.9547 455.045C29.082 405.173 1.06375 337.531 1.06375 267" stroke="white" stroke-miterlimit="10"/>
<path d="M267 1.06372C337.531 1.06372 405.173 29.0819 455.045 78.9547C504.918 128.827 532.936 196.469 532.936 267" stroke="white" stroke-miterlimit="10"/>
<path d="M267 37.2311C327.939 37.2311 386.381 61.4388 429.471 104.529C472.561 147.619 496.769 206.061 496.769 267C496.769 327.939 472.561 386.381 429.471 429.471C386.381 472.561 327.939 496.769 267 496.769C206.061 496.769 147.619 472.561 104.529 429.471C61.4388 386.381 37.2311 327.939 37.2311 267" stroke="white" stroke-width="6" stroke-miterlimit="10" stroke-dasharray="1 3"/>
<path d="M267 73.3984C318.346 73.3984 367.59 93.7957 403.897 130.103C440.204 166.41 460.602 215.654 460.602 267C460.602 318.346 440.204 367.59 403.897 403.897C367.59 440.204 318.346 460.602 267 460.602C215.654 460.602 166.41 440.204 130.103 403.897C93.7957 367.59 73.3984 318.346 73.3984 267" stroke="white" stroke-width="2" stroke-miterlimit="10"/>
<path d="M267 428.689C224.117 428.689 182.991 411.654 152.668 381.332C122.346 351.009 105.311 309.883 105.311 267" stroke="white" stroke-width="12" stroke-miterlimit="10"/>
<path d="M267 105.311C309.883 105.311 351.009 122.346 381.332 152.668C411.654 182.991 428.689 224.117 428.689 267" stroke="white" stroke-width="12" stroke-miterlimit="10"/>
<path d="M343.59 190.41C363.898 210.726 375.307 238.275 375.307 267C375.307 295.725 363.898 323.275 343.59 343.59C323.275 363.898 295.725 375.307 267 375.307C238.275 375.307 210.725 363.898 190.41 343.59C170.102 323.275 158.693 295.725 158.693 267C158.693 238.275 170.102 210.726 190.41 190.41" stroke="white" stroke-width="2" stroke-miterlimit="10"/>
<path d="M265.936 220.195C278.628 220.206 290.797 225.253 299.772 234.228C308.747 243.203 313.794 255.372 313.805 268.064C313.794 280.756 308.747 292.925 299.772 301.899C290.797 310.874 278.628 315.921 265.936 315.932C253.244 315.921 241.075 310.874 232.101 301.899C223.126 292.925 218.079 280.756 218.068 268.064C218.079 255.372 223.126 243.203 232.101 234.228C241.075 225.253 253.244 220.206 265.936 220.195ZM265.936 177.645C241.956 177.645 218.958 187.172 202.001 204.128C185.044 221.085 175.518 244.083 175.518 268.064C175.518 292.044 185.044 315.042 202.001 331.999C218.958 348.956 241.956 358.482 265.936 358.482C289.917 358.482 312.915 348.956 329.872 331.999C346.828 315.042 356.355 292.044 356.355 268.064C356.355 244.083 346.828 221.085 329.872 204.128C312.915 187.172 289.917 177.645 265.936 177.645Z" fill="white"/>
<path d="M152.669 381.331C122.346 351.009 105.311 309.883 105.311 267C105.311 224.117 122.346 182.991 152.669 152.669" stroke="white" stroke-width="2" stroke-miterlimit="10"/>
<path d="M381.331 152.669C411.654 182.991 428.689 224.117 428.689 267C428.689 309.883 411.654 351.009 381.331 381.331" stroke="white" stroke-width="2" stroke-miterlimit="10"/>
<path d="M363.801 363.801C351.09 376.515 335.999 386.6 319.389 393.481C302.78 400.361 284.978 403.903 267 403.903C249.022 403.903 231.22 400.361 214.611 393.481C198.001 386.6 182.91 376.515 170.199 363.801" stroke="white" stroke-width="12" stroke-miterlimit="10"/>
<path d="M170.199 170.199C182.91 157.486 198.001 147.4 214.611 140.519C231.22 133.639 249.022 130.097 267 130.097C284.978 130.097 302.78 133.639 319.389 140.519C335.999 147.4 351.09 157.486 363.801 170.199" stroke="white" stroke-width="12" stroke-miterlimit="10"/>
<path d="M267 467.09C213.951 467.062 163.085 445.969 125.583 408.448C88.0822 370.927 67.0159 320.049 67.0159 267" stroke="white" stroke-width="8" stroke-miterlimit="10"/>
<path d="M267 67.016C320.049 67.016 370.927 88.0823 408.448 125.584C445.969 163.085 467.062 213.951 467.09 267" stroke="white" stroke-width="8" stroke-miterlimit="10"/>
</svg>
