<svg width="33" height="33" viewBox="0 0 33 33" fill="none" xmlns="http://www.w3.org/2000/svg">
<g clip-path="url(#clip0_1086_553)">
<path d="M16.5 0.125977C7.66347 0.125977 0.5 7.28944 0.5 16.126C0.5 24.9625 7.66347 32.126 16.5 32.126C25.3365 32.126 32.5 24.9625 32.5 16.126C32.5 7.28944 25.3365 0.125977 16.5 0.125977ZM16.5 3.60254C23.4165 3.60254 29.0215 9.2112 29.0215 16.126C29.0215 23.0408 23.4165 28.6475 16.5 28.6475C9.58347 28.6475 3.97851 23.0408 3.97851 16.126C3.97853 9.2112 9.58347 3.60254 16.5 3.60254ZM22.6309 8.52832L13.3574 17.8037L10.3496 14.7959L7.39843 17.7451L10.4062 20.7529L13.3769 23.7236L16.3262 20.7725L25.6015 11.499L22.6309 8.52832Z" fill="white"/>
</g>
<defs>
<clipPath id="clip0_1086_553">
<rect width="32" height="32" fill="white" transform="translate(0.5 0.125977)"/>
</clipPath>
</defs>
</svg>
