<svg width="658" height="460" viewBox="0 0 658 460" fill="none" xmlns="http://www.w3.org/2000/svg">
<g clip-path="url(#clip0_367_2697)">
<path d="M211.416 242.244C243 242.244 268.604 216.64 268.604 185.055C268.604 153.471 243 127.867 211.416 127.867C179.831 127.867 154.227 153.471 154.227 185.055C154.227 216.64 179.831 242.244 211.416 242.244Z" stroke="white" stroke-width="2" stroke-miterlimit="10"/>
<path d="M211.415 233.875C238.378 233.875 260.235 212.018 260.235 185.055C260.235 158.093 238.378 136.235 211.415 136.235C184.453 136.235 162.596 158.093 162.596 185.055C162.596 212.018 184.453 233.875 211.415 233.875Z" stroke="white" stroke-miterlimit="10"/>
<path d="M254.599 173.679C218.856 182.512 197.771 221.64 200.727 233.634C203.683 245.629 240.56 270.357 276.337 261.593C312.08 252.76 333.182 213.632 330.209 201.655C327.236 189.677 290.359 164.846 254.599 173.679Z" fill="white"/>
<path d="M220.678 69.0454C240.397 77.9851 257.024 92.5713 268.454 110.96C279.885 129.348 285.606 150.713 284.895 172.352C284.184 193.992 277.073 214.935 264.46 232.534C251.847 250.132 234.299 263.595 214.035 271.221C193.771 278.847 171.701 280.294 150.615 275.377C129.529 270.461 110.374 259.403 95.5729 243.601C80.7713 227.799 70.9876 207.963 67.4587 186.601C63.9298 165.239 66.8143 143.31 75.7473 123.588" stroke="white" stroke-width="2" stroke-miterlimit="10"/>
<path d="M73.8227 211.502L31.7905 139.397L262.847 52.4287L278.777 134.362" stroke="white" stroke-width="2" stroke-miterlimit="10"/>
<path d="M32.6841 139.758C30.1131 140.737 27.2668 140.708 24.7168 139.675C22.1668 138.642 20.1019 136.683 18.9368 134.19L2.28549 98.7569L258.878 2.28564L269.721 39.9187C270.48 42.5474 270.221 45.3656 268.995 47.8115C267.769 50.2575 265.666 52.1515 263.105 53.1161V53.1161" stroke="white" stroke-width="2" stroke-miterlimit="10"/>
<path d="M6.87363 108.448L237.14 21.772" stroke="white" stroke-miterlimit="10"/>
<path d="M10.4995 118.089L47.7889 104.066" stroke="white" stroke-miterlimit="10"/>
<path d="M199.215 148.35C191.723 150.189 187.323 158.385 187.942 160.894C188.561 163.403 196.276 168.593 203.751 166.737C211.244 164.898 215.643 156.701 215.024 154.193C214.405 151.684 206.69 146.408 199.215 148.35Z" fill="white"/>
<path d="M589.267 246.273L319.285 197.258C312.599 196.044 306.195 200.48 304.981 207.166L296.558 253.561C295.345 260.246 299.781 266.651 306.466 267.864L576.448 316.88C583.134 318.094 589.538 313.657 590.752 306.972L599.175 260.577C600.389 253.891 595.953 247.487 589.267 246.273Z" stroke="white" stroke-width="2" stroke-miterlimit="10"/>
<path d="M590.092 252.5L316.323 202.798C313.933 202.364 311.643 203.95 311.209 206.34L302.098 256.522C301.665 258.913 303.251 261.202 305.641 261.636L579.41 311.339C581.801 311.773 584.09 310.187 584.524 307.797L593.635 257.615C594.069 255.224 592.483 252.934 590.092 252.5Z" stroke="white" stroke-miterlimit="10"/>
<path d="M567.899 289.019C573.517 289.019 578.072 284.464 578.072 278.846C578.072 273.227 573.517 268.673 567.899 268.673C562.28 268.673 557.726 273.227 557.726 278.846C557.726 284.464 562.28 289.019 567.899 289.019Z" stroke="white" stroke-miterlimit="10"/>
<path d="M306.667 231.417L522.602 270.632" stroke="white" stroke-miterlimit="10"/>
<path d="M534.957 275.856C536.608 275.856 537.947 274.517 537.947 272.865C537.947 271.214 536.608 269.875 534.957 269.875C533.306 269.875 531.967 271.214 531.967 272.865C531.967 274.517 533.306 275.856 534.957 275.856Z" fill="white"/>
<path d="M546.728 278.004C548.379 278.004 549.718 276.665 549.718 275.014C549.718 273.363 548.379 272.024 546.728 272.024C545.077 272.024 543.738 273.363 543.738 275.014C543.738 276.665 545.077 278.004 546.728 278.004Z" fill="white"/>
<path d="M576.448 316.876L306.466 267.861C299.78 266.647 293.376 271.083 292.162 277.769L283.739 324.164C282.525 330.85 286.961 337.254 293.647 338.467L563.629 387.483C570.315 388.697 576.719 384.261 577.933 377.575L586.356 331.18C587.57 324.494 583.134 318.09 576.448 316.876Z" stroke="white" stroke-width="2" stroke-miterlimit="10"/>
<path d="M577.273 323.104L303.504 273.401C301.113 272.967 298.824 274.553 298.39 276.944L289.279 327.126C288.845 329.516 290.431 331.806 292.822 332.24L566.591 381.943C568.981 382.377 571.271 380.791 571.705 378.4L580.816 328.218C581.25 325.828 579.663 323.538 577.273 323.104Z" stroke="white" stroke-miterlimit="10"/>
<path d="M555.08 359.628C560.698 359.628 565.253 355.073 565.253 349.455C565.253 343.836 560.698 339.282 555.08 339.282C549.461 339.282 544.907 343.836 544.907 349.455C544.907 355.073 549.461 359.628 555.08 359.628Z" stroke="white" stroke-miterlimit="10"/>
<path d="M293.847 302.027L509.782 341.224" stroke="white" stroke-miterlimit="10"/>
<path d="M522.138 346.465C523.789 346.465 525.128 345.126 525.128 343.475C525.128 341.824 523.789 340.485 522.138 340.485C520.486 340.485 519.148 341.824 519.148 343.475C519.148 345.126 520.486 346.465 522.138 346.465Z" fill="white"/>
<path d="M533.909 348.596C535.56 348.596 536.899 347.257 536.899 345.606C536.899 343.954 535.56 342.616 533.909 342.616C532.257 342.616 530.919 343.954 530.919 345.606C530.919 347.257 532.257 348.596 533.909 348.596Z" fill="white"/>
<path d="M563.628 387.48L293.647 338.464C286.961 337.251 280.557 341.687 279.343 348.372L270.92 394.767C269.706 401.453 274.142 407.857 280.828 409.071L550.81 458.086C557.496 459.3 563.9 454.864 565.113 448.178L573.536 401.783C574.75 395.098 570.314 388.694 563.628 387.48Z" stroke="white" stroke-width="2" stroke-miterlimit="10"/>
<path d="M564.454 393.707L290.685 344.005C288.294 343.571 286.005 345.157 285.571 347.547L276.46 397.729C276.026 400.12 277.612 402.409 280.003 402.843L553.772 452.546C556.162 452.98 558.452 451.394 558.886 449.004L567.996 398.822C568.43 396.431 566.844 394.141 564.454 393.707Z" stroke="white" stroke-miterlimit="10"/>
<path d="M542.26 430.238C547.879 430.238 552.433 425.683 552.433 420.065C552.433 414.446 547.879 409.892 542.26 409.892C536.642 409.892 532.087 414.446 532.087 420.065C532.087 425.683 536.642 430.238 542.26 430.238Z" stroke="white" stroke-miterlimit="10"/>
<path d="M281.028 372.636L496.963 411.833" stroke="white" stroke-miterlimit="10"/>
<path d="M509.318 417.074C510.97 417.074 512.308 415.736 512.308 414.084C512.308 412.433 510.97 411.094 509.318 411.094C507.667 411.094 506.328 412.433 506.328 414.084C506.328 415.736 507.667 417.074 509.318 417.074Z" fill="white"/>
<path d="M521.09 419.205C522.741 419.205 524.08 417.866 524.08 416.215C524.08 414.564 522.741 413.225 521.09 413.225C519.438 413.225 518.1 414.564 518.1 416.215C518.1 417.866 519.438 419.205 521.09 419.205Z" fill="white"/>
<path d="M526.657 263.672L422.264 301.064C418.377 302.458 414.191 302.804 410.128 302.067C406.064 301.33 402.267 299.537 399.116 296.867C395.966 294.197 393.574 290.745 392.18 286.858C390.787 282.97 390.441 278.785 391.178 274.721L410.991 165.534C411.729 161.471 413.522 157.674 416.192 154.524C418.862 151.374 422.314 148.983 426.201 147.589C430.088 146.196 434.273 145.851 438.336 146.587C442.398 147.324 446.196 149.117 449.346 151.787L533.943 223.513C537.11 226.181 539.516 229.638 540.919 233.534C542.322 237.431 542.671 241.628 541.932 245.703C541.193 249.777 539.391 253.585 536.709 256.74C534.027 259.895 530.559 262.286 526.657 263.672Z" fill="white"/>
<path d="M656.105 119.137C656.105 102.502 649.496 86.5488 637.734 74.7861C625.971 63.0235 610.018 56.4153 593.383 56.4153C592.541 56.4153 591.664 56.4153 590.891 56.4153C589.92 56.4659 588.955 56.241 588.107 55.7667C587.259 55.2924 586.562 54.5879 586.097 53.7346C578.36 39.1992 566.53 27.2513 552.073 19.3694C537.616 11.4876 521.164 8.01778 504.755 9.38933C488.346 10.7609 472.699 16.9136 459.751 27.0861C446.802 37.2586 437.121 51.0045 431.904 66.6227C431.601 67.4781 431.078 68.2385 430.387 68.8269C429.696 69.4153 428.862 69.8108 427.969 69.9736C421.752 71.09 415.829 73.4641 410.561 76.9503C409.661 77.5489 408.601 77.8605 407.52 77.8438H406.936C395.641 77.8418 384.733 81.9599 376.258 89.426C367.783 96.8921 362.322 107.193 360.9 118.398C360.801 119.131 360.861 119.876 361.076 120.583C361.29 121.29 361.654 121.943 362.143 122.497C362.632 123.051 363.234 123.493 363.909 123.794C364.584 124.095 365.316 124.247 366.055 124.241H650.949C652.317 124.241 653.628 123.698 654.595 122.731C655.561 121.764 656.105 120.453 656.105 119.086V119.137Z" stroke="white" stroke-width="2" stroke-miterlimit="10"/>
<path d="M462.681 24.9514C454.432 20.0135 445.181 16.989 435.608 16.1006C426.036 15.2123 416.386 16.4829 407.37 19.8186C398.353 23.1544 390.2 28.4705 383.511 35.3752C376.822 42.2799 371.767 50.5973 368.718 59.7148C368.426 60.6255 357.566 60.299 341.653 72.6887C328.679 82.7586 336.223 103.62 352.651 103.62H366.553" stroke="white" stroke-miterlimit="10"/>
</g>
<defs>
<clipPath id="clip0_367_2697">
<rect width="657.823" height="460" fill="white"/>
</clipPath>
</defs>
</svg>
