<svg width="607" height="480" viewBox="0 0 607 480" fill="none" xmlns="http://www.w3.org/2000/svg">
<g clip-path="url(#clip0_367_2681)">
<path d="M387.238 242.775L314.123 218.48L329.641 293.958L387.238 242.775Z" stroke="white" stroke-width="2" stroke-miterlimit="10"/>
<path d="M441.119 103.235L208.624 151.044C198.37 153.153 191.767 163.175 193.875 173.43L232.659 362.036C234.768 372.291 244.79 378.894 255.044 376.785L487.539 328.977C497.793 326.868 504.397 316.846 502.288 306.591L463.504 117.985C461.396 107.73 451.373 101.127 441.119 103.235Z" stroke="white" stroke-width="2" stroke-miterlimit="10"/>
<path d="M399.625 144.252C404.335 144.252 408.153 140.434 408.153 135.724C408.153 131.015 404.335 127.197 399.625 127.197C394.916 127.197 391.098 131.015 391.098 135.724C391.098 140.434 394.916 144.252 399.625 144.252Z" fill="white"/>
<path d="M420.521 139.95C425.23 139.95 429.048 136.132 429.048 131.422C429.048 126.713 425.23 122.895 420.521 122.895C415.812 122.895 411.994 126.713 411.994 131.422C411.994 136.132 415.812 139.95 420.521 139.95Z" fill="white"/>
<path d="M441.436 135.648C446.145 135.648 449.963 131.83 449.963 127.12C449.963 122.411 446.145 118.593 441.436 118.593C436.726 118.593 432.908 122.411 432.908 127.12C432.908 131.83 436.726 135.648 441.436 135.648Z" fill="white"/>
<path d="M467.92 139.412L198.296 194.858" stroke="white" stroke-miterlimit="10"/>
<path d="M306.479 46.1889L278.324 40.4272C276.838 40.1316 275.295 40.4335 274.03 41.2674C272.764 42.1014 271.878 43.4004 271.564 44.8829L270.296 51.0286C270.008 52.4513 269.441 53.803 268.629 55.0061C267.817 56.2092 266.775 57.2401 265.564 58.0395C264.352 58.8389 262.994 59.3912 261.569 59.6646C260.143 59.938 258.677 59.9271 257.256 59.6326L181.068 44.0571C179.647 43.7663 178.297 43.1982 177.095 42.3853C175.893 41.5725 174.863 40.5308 174.064 39.3197C173.265 38.1087 172.712 36.752 172.438 35.3274C172.163 33.9027 172.172 32.4378 172.464 31.0166L173.713 24.8709C173.986 23.3961 173.673 21.8727 172.841 20.6247C172.009 19.3766 170.723 18.5023 169.257 18.1874L141.083 12.4258C137.733 11.7357 134.28 11.7131 130.922 12.3593C127.563 13.0055 124.366 14.3078 121.511 16.1917C118.657 18.0756 116.202 20.504 114.288 23.3379C112.373 26.1718 111.036 29.3555 110.354 32.7067L34.5889 403.178C33.9014 406.528 33.8807 409.98 34.528 413.337C35.1754 416.695 36.478 419.892 38.3614 422.746C40.2449 425.599 42.6723 428.054 45.5049 429.969C48.3375 431.884 51.5197 433.222 54.8697 433.907L220.286 467.593C223.635 468.283 227.088 468.306 230.447 467.66C233.805 467.014 237.003 465.711 239.857 463.827C242.711 461.944 245.166 459.515 247.081 456.681C248.995 453.847 250.332 450.664 251.014 447.312L326.779 76.8406C328.145 70.0847 326.774 63.0631 322.968 57.3166C319.162 51.5701 313.232 47.5681 306.479 46.1889V46.1889Z" stroke="white" stroke-miterlimit="10"/>
<path d="M100.011 30.1L24.0616 401.411C20.1654 420.459 32.4484 439.059 51.4964 442.955L219.841 477.389C238.889 481.285 257.489 469.002 261.385 449.954L337.334 78.6429C341.231 59.5949 328.948 40.995 309.9 37.0989L141.555 2.66512C122.507 -1.23101 103.907 11.052 100.011 30.1Z" stroke="white" stroke-width="2" stroke-miterlimit="10"/>
<path d="M513.456 335.633C560.759 341.222 604.105 303.464 605.987 287.62C607.869 271.775 574.529 224.914 527.245 219.325C479.942 213.717 436.577 251.475 434.714 267.339C432.851 283.202 466.153 330.025 513.456 335.633Z" fill="white"/>
<path d="M132.555 212.834L30.6902 271.699C27.5776 273.5 24.0455 274.45 20.4493 274.452C16.853 274.455 13.3194 273.51 10.2043 271.713C7.08922 269.916 4.50245 267.33 2.70434 264.216C0.906224 261.101 -0.0397733 257.568 -0.0384406 253.972V136.301C-0.0422611 132.704 0.902552 129.169 2.70065 126.054C4.49874 122.939 7.08653 120.353 10.203 118.557C13.3196 116.761 16.8546 115.819 20.4515 115.825C24.0484 115.832 27.58 116.786 30.6902 118.593L132.479 177.419C135.594 179.205 138.184 181.779 139.988 184.884C141.791 187.989 142.745 191.514 142.753 195.105C142.761 198.695 141.822 202.224 140.032 205.337C138.242 208.449 135.663 211.035 132.555 212.834Z" fill="white"/>
</g>
<defs>
<clipPath id="clip0_367_2681">
<rect width="606.083" height="480" fill="white"/>
</clipPath>
</defs>
</svg>
