<svg width="628" height="460" viewBox="0 0 628 460" fill="none" xmlns="http://www.w3.org/2000/svg">
<g clip-path="url(#clip0_367_2741)">
<path d="M27.5272 287.367C27.5272 326.253 121.488 429.853 237.388 429.853C353.289 429.853 447.229 326.233 447.229 287.367C447.229 248.502 353.289 144.881 237.388 144.881" stroke="white" stroke-width="4" stroke-miterlimit="10"/>
<path d="M376.764 381.328C395.215 353.936 405.192 321.717 405.45 288.691C405.709 255.665 396.237 223.294 378.217 195.617" stroke="white" stroke-miterlimit="10"/>
<path d="M69.3601 287.367C69.2999 319.968 78.776 351.875 96.6212 379.158" stroke="white" stroke-miterlimit="10"/>
<path d="M148.074 256.954C142.059 274.62 141.418 293.673 146.231 311.704C151.044 329.734 161.094 345.933 175.112 358.252C189.13 370.572 206.486 378.458 224.985 380.915C243.484 383.372 262.297 380.289 279.044 372.055C295.792 363.822 309.722 350.808 319.074 334.658C328.426 318.509 332.78 299.949 331.585 281.326C330.391 262.702 323.701 244.851 312.363 230.028C301.024 215.206 285.545 204.079 267.883 198.052" stroke="white" stroke-width="2" stroke-miterlimit="10"/>
<path d="M169.645 253.741L169.215 254.662" stroke="white" stroke-width="6" stroke-miterlimit="10"/>
<path d="M166.698 260.249C161.514 273.791 160.327 288.537 163.278 302.734C166.229 316.931 173.194 329.982 183.346 340.336C193.497 350.69 206.408 357.912 220.544 361.143C234.68 364.375 249.446 363.479 263.088 358.564C276.73 353.648 288.674 344.919 297.5 333.414C306.326 321.909 311.663 308.112 312.877 293.663C314.092 279.213 311.131 264.719 304.349 251.902C297.566 239.086 287.247 228.486 274.616 221.363" stroke="white" stroke-width="6" stroke-miterlimit="10" stroke-dasharray="0.99 2.97"/>
<path d="M271.976 219.972L271.076 219.521" stroke="white" stroke-width="6" stroke-miterlimit="10"/>
<path d="M267.842 287.367L217.25 258.162V316.593L267.842 287.367Z" fill="white"/>
<path d="M116.064 408.711C131.998 424.649 150.916 437.291 171.736 445.916C192.557 454.542 214.872 458.981 237.409 458.981C259.945 458.981 282.261 454.542 303.081 445.916C323.902 437.291 342.819 424.649 358.753 408.711" stroke="white" stroke-miterlimit="10"/>
<path d="M527.62 43.7363V111.336" stroke="white" stroke-width="2" stroke-miterlimit="10"/>
<path d="M508.198 58.3086V111.337" stroke="white" stroke-width="2" stroke-miterlimit="10"/>
<path d="M488.755 72.8804V111.337" stroke="white" stroke-width="2" stroke-miterlimit="10"/>
<path d="M469.333 58.3086V111.337" stroke="white" stroke-width="2" stroke-miterlimit="10"/>
<path d="M449.89 43.7363V111.336" stroke="white" stroke-width="2" stroke-miterlimit="10"/>
<path d="M430.447 29.144V111.337" stroke="white" stroke-width="2" stroke-miterlimit="10"/>
<path d="M411.024 0V111.337" stroke="white" stroke-width="2" stroke-miterlimit="10"/>
<path d="M391.581 43.7363V111.336" stroke="white" stroke-width="2" stroke-miterlimit="10"/>
<path d="M469.333 124.312H365.937L297.17 193.079" stroke="white" stroke-miterlimit="10"/>
<path d="M237.409 398.458C251.997 398.458 266.443 395.584 279.921 390.001C293.4 384.419 305.646 376.236 315.962 365.92C326.278 355.604 334.461 343.358 340.043 329.879C345.626 316.401 348.5 301.956 348.5 287.367C348.5 272.778 345.626 258.332 340.043 244.854C334.461 231.376 326.278 219.129 315.962 208.814C305.646 198.498 293.4 190.315 279.921 184.732C266.443 179.149 251.997 176.276 237.409 176.276" stroke="white" stroke-miterlimit="10"/>
<path d="M214.016 214.139L37.4942 277.379C32.8644 279.039 27.8793 279.451 23.0399 278.573C18.2005 277.696 13.6774 275.56 9.92522 272.38C6.17301 269.2 3.32392 265.089 1.66431 260.459C0.00469953 255.829 -0.406946 250.844 0.470743 246.005L33.9536 61.5011C34.8297 56.6587 36.9658 52.1325 40.1469 48.3779C43.3279 44.6232 47.4418 41.7726 52.0745 40.1129C56.7072 38.4532 61.6953 38.0428 66.5369 38.9232C71.3785 39.8036 75.9029 41.9437 79.6547 45.1281L222.673 166.37C226.43 169.549 229.283 173.661 230.946 178.293C232.608 182.925 233.021 187.913 232.144 192.755C231.266 197.598 229.129 202.123 225.946 205.877C222.764 209.631 218.649 212.48 214.016 214.139Z" fill="white"/>
<path d="M487.977 179.53C422.485 195.719 383.784 267.535 389.207 289.434C394.631 311.333 462.251 356.973 527.784 340.6C593.276 324.411 631.978 252.595 626.534 230.696C621.09 208.797 553.531 163.321 487.977 179.53Z" fill="white"/>
</g>
<defs>
<clipPath id="clip0_367_2741">
<rect width="627.066" height="460" fill="white"/>
</clipPath>
</defs>
</svg>
